<?xml version="1.0" encoding="UTF-8" standalone="no"?>
<!-- Created with Inkscape (http://www.inkscape.org/) -->

<svg
   width="677.42584"
   height="639.9082"
   viewBox="0 0 677.42584 639.90821"
   version="1.1"
   id="svg1"
   xml:space="preserve"
   sodipodi:docname="cv-ico.svg"
   inkscape:version="1.4.3 (0d15f75042, 2025-12-25)"
   xmlns:inkscape="http://www.inkscape.org/namespaces/inkscape"
   xmlns:sodipodi="http://sodipodi.sourceforge.net/DTD/sodipodi-0.dtd"
   xmlns="http://www.w3.org/2000/svg"
   xmlns:svg="http://www.w3.org/2000/svg"><sodipodi:namedview
     id="namedview1"
     pagecolor="#000000"
     bordercolor="#000000"
     borderopacity="0.24705882"
     inkscape:showpageshadow="2"
     inkscape:pageopacity="0.0"
     inkscape:pagecheckerboard="0"
     inkscape:deskcolor="#d1d1d1"
     inkscape:document-units="px"
     inkscape:export-bgcolor="#ffffff00"
     inkscape:zoom="0.17935469"
     inkscape:cx="-540.82779"
     inkscape:cy="97.572024"
     inkscape:window-width="1366"
     inkscape:window-height="696"
     inkscape:window-x="0"
     inkscape:window-y="0"
     inkscape:window-maximized="1"
     inkscape:current-layer="layer1" /><defs
     id="defs1"><rect
       x="-871.29364"
       y="-441.56058"
       width="488.87064"
       height="299.6304"
       id="rect6" /></defs><g
     inkscape:label="Capa 1"
     inkscape:groupmode="layer"
     id="layer1"
     transform="translate(318.8206,-483.70219)"><g
       id="g2" /><path
       style="fill:#ffffff;fill-opacity:1"
       d="m -187.16315,1031.9089 c -0.0548,-28.9801 -0.40529,-53.81598 -0.77881,-55.19098 -1.61851,-5.958 -2.38889,-6.03183 -60.03831,-5.75327 -38.90526,0.18799 -52.51718,0.55453 -52.80623,1.42196 -0.54853,1.64617 111.27354,113.72699 112.62879,112.88939 0.77199,-0.4771 1.06489,-16.1938 0.99456,-53.3671 z m 508.39243,46.7933 c 3.89658,-3.0651 5.18118,-8.1741 5.19494,-20.6611 0.0108,-9.8192 -0.24371,-11.5195 -2.09561,-14 l -2.10792,-2.8233 H 95.884654 -130.45137 l -2.05605,3.5 c -4.90911,8.3567 -1.71469,32.3989 4.64376,34.9503 1.37967,0.5536 91.189183,0.9483 224.415324,0.9863 221.223486,0.063 222.125436,0.055 224.677616,-1.9522 z m 1.6564,-74.6468 c 5.62492,-7.15088 4.9021,-32.20598 -1.02056,-35.37569 -1.13515,-0.60752 -84.45774,-0.96179 -226.207866,-0.96179 -219.428364,0 -224.449034,0.0423 -226.135144,1.90544 -6.00283,6.63306 -5.86414,32.50014 0.19319,36.03054 1.13683,0.6626 78.004133,1.0135 226.398644,1.0336 l 224.677426,0.03 z M -84.843497,877.30218 c 45.22127,-7.10118 75.2997209,-26.0516 92.9859909,-58.58426 13.6255791,-25.06331 10.7726091,-38.1062 -10.60317,-48.47433 -15.2821909,-7.41249 -14.0878199,-8.10666 -17.4890709,10.16457 -10.41122,55.92813 -36.84495,83.67472 -79.61373,83.56782 -57.535873,-0.14382 -88.010843,-48.07326 -94.584793,-148.75806 -4.32111,-66.18094 5.4774,-128.75836 24.68539,-157.6513 24.69318,-37.14385 78.949733,-37.01204 97.109683,0.23592 5.62107,11.52941 11.28972,39.33717 11.28972,55.38213 0,10.57073 0.5322,11.53344 6.375,11.53189 16.09569,-0.004 36.71884,-6.57142 45.4728309,-14.48012 11.7539,-10.61895 16.39491,-39.3112 8.64030998,-53.41722 C -8.1254061,543.08525 -35.674537,530.98617 -74.063477,524.54455 c -19.95009,-3.3476 -68.201153,-3.35087 -87.499993,-0.006 -90.3548,15.6606 -141.39957,80.07042 -141.61381,178.69254 -0.21001,96.67435 48.40874,158.20886 136.61381,172.9058 22.63121,3.77087 61.58943,4.32636 81.719973,1.16522 z m 293.516327,0.16574 c 0.53965,-0.6875 6.45733,-20.375 13.1504,-43.75 6.69306,-23.375 13.69374,-47.675 15.55705,-54 9.6327,-32.69803 28.41254,-97.02185 36.05679,-123.5 9.73388,-33.71619 24.0259,-82.1504 28.47534,-96.5 6.05957,-19.54238 11.44265,-24.1932 30.51408,-26.36327 8.29174,-0.94349 10.04821,-1.44238 10.33258,-2.93477 0.89828,-4.71418 1.02759,-4.70196 -49.74498,-4.70196 -49.55427,0 -50.07756,0.0433 -50.07756,4.14099 0,2.71179 1.73195,3.23513 12.99663,3.92717 12.79336,0.78597 18.24506,2.35097 22.64499,6.50064 6.0535,5.70918 4.92923,11.72673 -14.65343,78.4312 -5.58143,19.01202 -34.22024,119.75792 -39.02663,137.28826 -1.77763,6.48353 -3.67943,11.63912 -4.22622,11.45686 -0.5468,-0.18227 -5.37309,-11.78698 -10.7251,-25.78826 -11.84071,-30.9762 -35.73194,-92.8476 -51.53349,-133.45686 -18.6467,-47.92115 -19.71963,-51.09185 -19.85637,-58.67892 -0.20114,-11.15985 3.85646,-13.99902 23.0429,-16.12349 11.31542,-1.25292 13.39405,-2.51373 10.29685,-6.24563 -1.24449,-1.49952 -169.5352761,-2.31969 -173.3783461,-0.84497 -1.82919,0.70193 -2.13194,4.93497 -0.42826,5.9879 0.63444,0.39211 4.88666,1.05318 9.44937,1.46905 6.1900491,0.56419 9.5965491,1.46406 13.4200191,3.54506 9.85583,5.36421 12.02542,9.55879 30.46058,58.891 6.98808,18.7 17.43631,46.6 23.21828,62 5.78197,15.4 17.219601,46 25.416957,68 8.19737,22 16.45224,44.05 18.34415,49 1.89192,4.95 9.11788,24.3 16.05769,43 18.58099,50.06832 21.57007,57.87006 22.70041,59.25 0.76897,0.93877 7.18768,1.25 25.77902,1.25 18.61412,0 24.99851,-0.31008 25.7363,-1.25 z"
       id="path7"
       sodipodi:nodetypes="sssssscsscccssscsssssccsssssssssscssscsssssssssssssssssssssssssssssssssss" /></g></svg>
