<?xml version="1.0" encoding="UTF-8" standalone="no"?>
<!-- Created with Inkscape (http://www.inkscape.org/) -->

<svg
   width="512"
   height="512"
   viewBox="0 0 512 512"
   version="1.1"
   id="svg1"
   xml:space="preserve"
   inkscape:version="1.4.3 (0d15f75042, 2025-12-25)"
   sodipodi:docname="main-logo-portafolio.svg"
   xmlns:inkscape="http://www.inkscape.org/namespaces/inkscape"
   xmlns:sodipodi="http://sodipodi.sourceforge.net/DTD/sodipodi-0.dtd"
   xmlns="http://www.w3.org/2000/svg"
   xmlns:svg="http://www.w3.org/2000/svg"><sodipodi:namedview
     id="namedview1"
     pagecolor="#ffffff"
     bordercolor="#000000"
     borderopacity="0.25"
     inkscape:showpageshadow="2"
     inkscape:pageopacity="0.0"
     inkscape:pagecheckerboard="0"
     inkscape:deskcolor="#d1d1d1"
     inkscape:document-units="px"
     inkscape:zoom="0.35355339"
     inkscape:cx="-22.627417"
     inkscape:cy="-2.8284271"
     inkscape:window-width="1680"
     inkscape:window-height="1022"
     inkscape:window-x="1366"
     inkscape:window-y="0"
     inkscape:window-maximized="1"
     inkscape:current-layer="g7" /><defs
     id="defs1"><inkscape:path-effect
       effect="spiro"
       id="path-effect3"
       is_visible="true"
       lpeversion="1" /><inkscape:path-effect
       effect="spiro"
       id="path-effect1"
       is_visible="true"
       lpeversion="1" /></defs><g
     inkscape:label="Capa 1"
     inkscape:groupmode="layer"
     id="layer1"><path
       id="rect4"
       style="fill:#323b4f;fill-opacity:1;stroke:none;stroke-width:5.05443;stroke-linejoin:round;stroke-miterlimit:5;paint-order:markers fill stroke"
       d="m 52.072014,5.5344913 c -24.119343,0 -43.5360734,19.4167317 -43.5360734,43.5360587 v 413.85891 c 0,24.11931 19.4167304,43.53605 43.5360734,43.53605 H 459.92798 c 24.11935,0 43.53608,-19.41674 43.53608,-43.53605 V 49.07055 c 0,-24.119327 -19.41673,-43.5360587 -43.53608,-43.5360587 z M 273.51734,21.643645 c 38.2807,0.06842 65.94333,0.102212 86.15756,0.19406 15.58284,0.0709 26.73938,0.176556 34.92165,0.358863 1.18723,0.02648 7.54123,-0.09421 14.19375,0.723726 6.8665,0.844165 14.08999,2.653059 18.81925,4.368537 9.2589,3.358533 19.95655,9.019029 32.59733,21.279506 5.36506,5.203651 19.61325,20.898265 25.10847,45.347882 l 1.00416,5.194518 c 1.11372,6.850573 1.2103,22.200423 1.00915,159.896633 l -0.21037,144.33917 c 0.11711,1.50902 0.14586,11.47521 -5.12546,25.05832 -4.35715,11.22773 -10.98386,21.49558 -18.6011,30.97951 -12.16258,15.1432 -30.28671,24.84557 -48.80189,29.04222 -4.27775,0.9696 -8.55362,1.43498 -12.91062,1.56205 -41.13975,1.08495 -272.03583,0.19528 -286.89331,-0.12043 C 93.716661,489.42054 76.520836,480.47561 62.570526,471.646 58.034235,468.77484 41.108465,449.69508 38.171639,444.40911 31.393765,432.20976 26.897175,419.57409 25.190142,403.59522 24.656861,398.6035 24.47912,348.01989 24.650186,249.15781 24.92915,87.94592 24.566866,100.53311 29.36463,86.241071 32.393904,77.217076 36.775835,68.690872 42.228862,60.984124 46.566623,54.85361 51.582146,49.24163 57.133735,44.310017 l -0.0042,-0.0042 v -0.0042 l -0.0042,-0.0042 c -0.05632,-0.13159 15.797344,-11.550246 21.246703,-14.13814 3.397117,-1.613301 7.540519,-3.3575 11.99794,-4.473649 11.679012,-2.924492 13.672802,-3.669916 32.046872,-3.811005 40.34444,-0.293477 151.09982,-0.232037 151.09982,-0.232037 z m -11.85701,8.285995 c -31.4361,-0.04883 34.68166,0.09822 66.85138,0.18628 63.01391,0.172169 -167.46851,0.359152 -129.77405,0.04097 -24.99091,0.05393 -58.96442,0.04276 -77.03559,0.143007 -3.38825,0.01903 -11.47679,0.10498 -19.33871,1.479565 -8.394804,1.467592 -16.564569,4.270222 -19.568036,5.666041 -6.463803,2.785527 -11.812571,7.308933 -17.251238,11.645189 -4.547561,3.625803 -16.081622,16.402964 -16.61926,18.381596 -5.887899,8.808659 -8.792208,18.542066 -12.491576,28.666905 -1.001765,2.741788 -2.224036,12.020057 -2.24608,15.013037 -0.226616,30.77657 -0.781166,250.3795 0.0042,288.6615 0.02483,1.20761 0.196916,6.45559 1.034406,10.86706 1.997188,10.52015 6.797365,25.22433 18.223594,39.41515 16.00727,19.88019 42.317811,31.50077 61.93728,31.64087 8.45624,0.0604 55.66041,0.0363 69.20287,0.0304 l 213.45528,-0.094 c 6.86278,0.17713 13.46407,-1.22702 20.02886,-3.10386 15.2981,-4.75802 28.29239,-14.55834 39.18744,-26.08276 7.82539,-9.02491 13.622,-18.95305 17.24164,-30.35348 0.85134,-2.77011 2.78681,-12.79841 2.99173,-16.05033 0.9601,-15.23708 0.89885,-50.06221 0.89974,-150.86212 9.5e-4,-107.75105 0.14433,-139.69862 -1.01289,-152.83243 -0.46003,-5.755072 -1.69952,-10.262112 -3.50779,-15.331994 0,0 -7.12,-15.201012 -10.29285,-20.153678 -4.0631,-6.34226 -8.9839,-12.207838 -18.45506,-19.353498 -5.91748,-4.650288 -12.24647,-8.563096 -18.08325,-10.99296 -1.31137,-0.545916 -8.86452,-3.848293 -17.35071,-5.451551 -6.73853,-1.273091 -14.92393,-0.968495 -14.92393,-0.968495 z"
       sodipodi:nodetypes="sssssssssssssssccccsssssssssssccccsssssccsssscsssssssscssssscscsscsc" /><path
       d="m 385.5908,150.23257 c -38.44269,-10.05492 -52.86192,-15.94183 -57.29051,-49.91653 -1.11339,-8.54169 -1.03443,-36.6427 -1.6386,-41.66404 -0.82638,-6.86819 -2.76643,-14.61425 -5.67488,-14.39403 l 5.17909,0.74424 c 44.59041,15.53632 69.1715,26.19523 65.90442,78.88181 -0.63687,8.46205 2.8681,21.85216 7.80235,27.80456 z m 1.34853,-4.98457 c -10.63441,-15.43536 -24.5381,-28.85152 -32.62178,-46.09403 -0.57533,-1.3226 -7.96094,-20.8494 -8.42767,-20.93533 -0.65897,-0.12132 1.56711,10.99276 5.48651,23.0899 5.45452,29.38262 12.21383,31.40743 35.56294,43.93946 z"
       style="fill:#ffffff;fill-opacity:1;stroke:none;stroke-width:5.05443;stroke-linejoin:round;stroke-miterlimit:5;paint-order:markers fill stroke"
       id="path1-5" /><g
       id="g7"
       transform="matrix(1.0677962,0,0,1.0900397,100.63522,265.00399)"><path
         id="path4"
         style="fill:#ffffff;fill-opacity:1;stroke:none;stroke-width:0.696722px;stroke-linejoin:round;stroke-opacity:1"
         d="M 315.16618,-177.76375 C 275.28302,-140.67 278.0474,-81.296867 213.0562,-52.355513 148.065,-23.414159 121.20246,-20.722381 80.454834,-1.956641 26.287634,16.545486 0.44053061,89.988239 -23.086556,145.05085 c -1.444795,11.58314 -2.225631,13.50948 5.152888,17.55714 7.378519,4.04765 14.5580753,-3.75915 20.2448253,-14.86117 C 16.293616,120.44942 26.417988,66.192262 84.759554,34.064054 156.62473,6.970474 249.68752,-20.026702 274.48178,-52.426637 c 24.79426,-32.399935 44.1459,-81.493103 62.41285,-106.580653 6.54906,-9.75105 2.8867,-17.6699 -3.07017,-22.47287 -7.48841,-6.03783 -17.22773,0.88001 -18.65828,3.71641 z"
         sodipodi:nodetypes="czcczsczcsc" /><rect
         style="fill:#ffffff;fill-opacity:1;stroke:none;stroke-width:1.23685;stroke-linejoin:round;stroke-miterlimit:5;stroke-opacity:1;paint-order:markers fill stroke"
         id="rect8"
         width="51.661339"
         height="53.347321"
         x="-8.313736"
         y="-164.69904"
         ry="10.968026"
         transform="matrix(0.72572592,0.68798393,-0.70279019,0.71139718,0,0)" /><rect
         style="fill:#ffffff;fill-opacity:1;stroke:none;stroke-width:1.23685;stroke-linejoin:round;stroke-miterlimit:5;stroke-opacity:1;paint-order:markers fill stroke"
         id="rect9"
         width="51.661339"
         height="53.347321"
         x="179.25241"
         y="-234.84453"
         ry="10.968026"
         transform="matrix(0.72572592,0.68798393,-0.70279019,0.71139718,0,0)" /></g></g></svg>
