<?xml version="1.0" encoding="UTF-8" standalone="no"?>
<!-- Created with Inkscape (http://www.inkscape.org/) -->

<svg
   width="494.92813"
   height="500.93103"
   viewBox="0 0 494.92813 500.93103"
   version="1.1"
   id="svg1"
   xml:space="preserve"
   inkscape:version="1.4.3 (0d15f75042, 2025-12-25)"
   sodipodi:docname="main-logo-portafolio.svg"
   xmlns:inkscape="http://www.inkscape.org/namespaces/inkscape"
   xmlns:sodipodi="http://sodipodi.sourceforge.net/DTD/sodipodi-0.dtd"
   xmlns="http://www.w3.org/2000/svg"
   xmlns:svg="http://www.w3.org/2000/svg"><sodipodi:namedview
     id="namedview1"
     pagecolor="#ffffff"
     bordercolor="#000000"
     borderopacity="0.25"
     inkscape:showpageshadow="2"
     inkscape:pageopacity="0.0"
     inkscape:pagecheckerboard="0"
     inkscape:deskcolor="#d1d1d1"
     inkscape:document-units="px"
     inkscape:zoom="0.35355339"
     inkscape:cx="449.71991"
     inkscape:cy="36.769553"
     inkscape:window-width="1680"
     inkscape:window-height="1022"
     inkscape:window-x="1366"
     inkscape:window-y="0"
     inkscape:window-maximized="1"
     inkscape:current-layer="layer1" /><defs
     id="defs1"><inkscape:path-effect
       effect="spiro"
       id="path-effect263"
       is_visible="true"
       lpeversion="1" /><inkscape:path-effect
       effect="spiro"
       id="path-effect29"
       is_visible="true"
       lpeversion="1" /><inkscape:path-effect
       effect="spiro"
       id="path-effect27"
       is_visible="true"
       lpeversion="1" /><inkscape:path-effect
       effect="spiro"
       id="path-effect3"
       is_visible="true"
       lpeversion="1" /><inkscape:path-effect
       effect="spiro"
       id="path-effect1"
       is_visible="true"
       lpeversion="1" /></defs><g
     inkscape:label="Capa 1"
     inkscape:groupmode="layer"
     id="layer1"
     transform="translate(6.34401,-45.30361)"><g
       id="g14"
       transform="matrix(0.86697459,0.44719181,0,0.84633185,543.53068,-13.580064)"
       style="fill:#212121;fill-opacity:0.381579;stroke:none" /><g
       id="g1"
       transform="translate(582.65599,209.30361)"><rect
         style="fill:#323b4f;fill-opacity:1;stroke-width:3.2872;stroke-linejoin:round;stroke-miterlimit:5;paint-order:markers fill stroke"
         id="rect1"
         width="494.92813"
         height="500.93103"
         x="-589"
         y="-164"
         ry="104.595" /><path
         id="path34-6"
         style="fill:#ffffff;fill-opacity:1;stroke:none;stroke-width:0.581325px;stroke-linejoin:round;stroke-opacity:0.6"
         d="m -177.40626,-93.99023 c -16.6948,42.53799 -44.7495,114.44147 -69.53905,134.75 -32.26462,26.43268 -62.36686,29.3311 -89.23633,26.36132 -51.53873,-8.075218 -82.6757,-13.035014 -126.35156,22.26563 -41.77678,34.02424 -103.45563,116.20129 -56.42774,169.48242 1.40596,1.4003 9.20078,1.85605 9.71485,0.46484 22.64963,-61.29568 79.5725,-119.22536 135.22265,-121.73046 54.36624,4.18831 100.89747,15.562 148.31836,-20.15821 25.97143,-21.27669 67.65364,-109.2772298 85.85156,-158.00781 8.52999,-22.84174 -28.53468,-76.40545 -37.55274,-53.42773 z"
         sodipodi:nodetypes="sccscsccss" /><path
         d="m -295.08582,-53.49275 c -1.07138,-9.4487 0.96475,-75.37844 -6.34039,-77.64927 21.83449,5.01313 64.91159,25.62574 61.62552,110.29464 -0.55212,11.7212602 2.4865,30.2686702 6.76422,38.51369 -40.52087,-4.335727 -57.88212,-33.123279 -62.04935,-71.15906 z"
         style="fill:#ffffff;fill-opacity:1;stroke:none;stroke-width:5.53882;stroke-linejoin:round;stroke-miterlimit:5;paint-order:markers fill stroke"
         id="path1-5-0"
         sodipodi:nodetypes="scccs" /><path
         style="fill:#ffffff;fill-opacity:1;stroke-width:3.4;stroke-linejoin:round;stroke-miterlimit:5;paint-order:markers fill stroke"
         id="path13"
         sodipodi:type="arc"
         sodipodi:cx="-292.90625"
         sodipodi:cy="106.29688"
         sodipodi:rx="10.15625"
         sodipodi:ry="10.546875"
         sodipodi:start="0"
         sodipodi:end="6.1775197"
         sodipodi:open="true"
         sodipodi:arc-type="arc"
         d="m -282.75,106.29688 a 10.15625,10.546875 0 0 1 -9.88799,10.5432 10.15625,10.546875 0 0 1 -10.41034,-9.98624 10.15625,10.546875 0 0 1 9.33805,-11.07073 10.15625,10.546875 0 0 1 10.90363,9.4014" /></g></g></svg>
